<svg xmlns="http://www.w3.org/2000/svg" xmlns:xlink="http://www.w3.org/1999/xlink" width="500" zoomAndPan="magnify" viewBox="0 0 375 374.999991" height="500" preserveAspectRatio="xMidYMid meet" version="1.0"><defs><clipPath id="07fd4778ab"><path d="M 72.574219 48.476562 L 302.074219 48.476562 L 302.074219 326.726562 L 72.574219 326.726562 Z M 72.574219 48.476562 " clip-rule="nonzero"/></clipPath></defs><g clip-path="url(#07fd4778ab)"><path fill="#c4202c" d="M 127.289062 250.714844 C 178.480469 261.894531 208.078125 236.667969 208.078125 236.667969 C 168.222656 257.128906 147.117188 237.691406 147.117188 237.691406 C 183.578125 244.371094 207.71875 225.378906 207.71875 225.378906 C 202.042969 226.90625 190.460938 221.625 190.460938 221.625 C 203.828125 223.257812 214.671875 217.886719 214.671875 217.886719 C 206.003906 216.304688 196.6875 212.40625 196.6875 212.40625 C 209.109375 213.304688 222.496094 210.007812 222.496094 210.007812 C 208.988281 211.324219 197.382812 202.59375 197.382812 202.59375 C 203.195312 200.789062 208.222656 197.226562 208.222656 197.226562 C 185.191406 189.46875 187.5 174.140625 187.5 174.140625 C 195.6875 181.457031 206.378906 185.894531 206.378906 185.894531 C 180.875 170.332031 191.609375 146.804688 191.609375 146.804688 C 197.667969 159.109375 209.597656 167.855469 209.597656 167.855469 C 187.65625 143.898438 208.203125 113.667969 208.203125 113.667969 C 209.136719 128.53125 215.832031 141.699219 215.832031 141.699219 C 203.617188 96.183594 248.414062 67.59375 248.414062 67.59375 C 226.386719 98.332031 229.742188 128.375 229.742188 128.375 C 245.511719 54.230469 287.34375 48.460938 287.34375 48.460938 C 231.550781 105.394531 243.738281 169.972656 246.242188 181.078125 C 248.742188 192.1875 239.585938 202.226562 239.585938 202.226562 C 245.378906 197.9375 247.992188 187.289062 247.992188 187.289062 C 251.511719 172.832031 258.730469 168.699219 258.730469 168.699219 C 256.757812 169.101562 254.617188 169.832031 254.617188 169.832031 C 260.386719 161.96875 267.679688 159.929688 267.679688 159.929688 C 262.257812 154.792969 261.878906 148.570312 261.878906 148.570312 C 262.996094 151.042969 266.152344 153.824219 266.152344 153.824219 C 263.246094 147.460938 263.363281 141.070312 263.363281 141.070312 C 264.367188 143.484375 265.980469 146.0625 265.980469 146.0625 C 266.53125 138.511719 270.761719 131.539062 270.761719 131.539062 C 270.761719 131.539062 265.867188 145.179688 279.296875 155.214844 C 292.726562 165.25 291.777344 170.820312 291.777344 170.820312 C 301.101562 175.816406 302.03125 182.449219 302.03125 182.449219 C 290.917969 179.144531 282.90625 182.714844 282.90625 182.714844 L 284.980469 180.507812 C 274.5 182.351562 273.089844 192.222656 273.316406 200.703125 C 273.546875 209.183594 270.089844 217.914062 270.089844 217.914062 L 269.667969 212.628906 C 264.5625 231.296875 251.039062 237.058594 239.164062 240.03125 C 237.246094 244.457031 233.492188 250.152344 226.386719 252.667969 C 213.972656 257.058594 210.726562 263.691406 208.9375 267.339844 C 207.152344 270.988281 196.421875 269.003906 196.421875 269.003906 C 196.421875 269.003906 200.789062 268.683594 202.460938 266.316406 L 199.097656 266.566406 C 200.386719 266.214844 202.445312 265.136719 205.152344 262.082031 C 209.972656 256.632812 216.546875 252.519531 220.78125 251 C 223.3125 250.09375 225.472656 245.808594 224.765625 243.367188 C 222.828125 243.964844 221.230469 244.667969 220.125 245.605469 C 212.152344 252.390625 209.324219 256.488281 209.324219 256.488281 L 214.628906 245.375 C 207.777344 255.453125 198.917969 260.972656 198.917969 260.972656 C 204.089844 254.597656 210.121094 244.804688 210.121094 244.804688 C 190.808594 264.117188 170.042969 279.699219 170.042969 279.699219 C 170.042969 279.699219 167.523438 296.019531 157.804688 304.136719 C 148.082031 312.246094 144.566406 326.707031 144.566406 326.707031 C 144.566406 326.707031 135.875 296.917969 163.429688 279.1875 C 190.984375 261.460938 206.265625 244.28125 206.265625 244.28125 C 175.15625 272.609375 131.304688 273.265625 131.304688 273.265625 C 131.304688 273.265625 126.921875 290.046875 115.855469 294.207031 C 104.78125 298.367188 97 301.398438 97 301.398438 C 97 301.398438 102.128906 266.878906 142.464844 266.683594 C 182.800781 266.492188 207.664062 239.753906 207.664062 239.753906 C 183.605469 256.460938 148.351562 260.25 127.539062 254.679688 C 106.722656 249.105469 101.933594 254.980469 101.933594 254.980469 C 101.933594 254.980469 99.515625 269.980469 88.878906 273.257812 C 78.242188 276.53125 72.582031 284.175781 72.582031 284.175781 C 72.582031 284.175781 76.097656 239.53125 127.289062 250.714844 " fill-opacity="1" fill-rule="nonzero"/></g></svg>